<?xml version="1.0" encoding="utf-8"?>
<!-- Generator: Adobe Illustrator 15.0.0, SVG Export Plug-In . SVG Version: 6.00 Build 0)  -->
<!DOCTYPE svg PUBLIC "-//W3C//DTD SVG 1.1//EN" "http://www.w3.org/Graphics/SVG/1.1/DTD/svg11.dtd">
<svg version="1.1" id="Layer_1" xmlns="http://www.w3.org/2000/svg" xmlns:xlink="http://www.w3.org/1999/xlink" x="0px" y="0px"
	 width="400px" height="81px" viewBox="0 0 400 81" enable-background="new 0 0 400 81" xml:space="preserve">
<g>
	<defs>
		<rect id="SVGID_1_" x="-197" y="-258" width="792" height="612"/>
	</defs>
	<clipPath id="SVGID_2_">
		<use xlink:href="#SVGID_1_"  overflow="visible"/>
	</clipPath>
	<path clip-path="url(#SVGID_2_)" fill="#E2231A" d="M24.5,57.85v-22.7h-8.8V29.8c1.233,0.032,2.425-0.058,3.575-0.275
		c1.15-0.217,2.183-0.6,3.1-1.149c0.917-0.551,1.691-1.275,2.325-2.176c0.633-0.899,1.05-2.017,1.25-3.35h5.65v35H24.5z"/>
	<path clip-path="url(#SVGID_2_)" fill="#E2231A" d="M58.272,34.85c-1.417,2.333-2.6,4.816-3.55,7.45c-0.95,2.633-1.684,5.3-2.2,8
		c-0.517,2.7-0.792,5.217-0.825,7.55h-7.6c0.4-5.232,1.625-10.268,3.675-15.1c2.05-4.834,4.741-9.267,8.075-13.301h-16.6v-6.6h23.9
		v6.1C61.314,30.55,59.689,32.517,58.272,34.85"/>
	<path clip-path="url(#SVGID_2_)" fill="#E2231A" d="M68.672,31.625c0.683-2.317,1.608-4.176,2.775-5.575s2.525-2.399,4.075-3
		c1.55-0.601,3.191-0.899,4.925-0.899c1.766,0,3.425,0.299,4.975,0.899c1.55,0.601,2.916,1.601,4.1,3
		c1.183,1.399,2.117,3.258,2.8,5.575c0.683,2.316,1.025,5.175,1.025,8.574c0,3.5-0.342,6.426-1.025,8.775s-1.617,4.225-2.8,5.625
		c-1.184,1.4-2.55,2.4-4.1,3c-1.55,0.6-3.209,0.9-4.975,0.9c-1.734,0-3.375-0.301-4.925-0.9c-1.55-0.6-2.908-1.6-4.075-3
		s-2.092-3.275-2.775-5.625c-0.683-2.35-1.025-5.275-1.025-8.775C67.646,36.8,67.989,33.941,68.672,31.625 M74.847,43.824
		c0.066,1.418,0.275,2.785,0.625,4.101c0.35,1.317,0.908,2.442,1.675,3.375c0.766,0.934,1.867,1.399,3.3,1.399
		c1.466,0,2.591-0.466,3.375-1.399c0.783-0.933,1.35-2.058,1.7-3.375c0.35-1.315,0.558-2.683,0.625-4.101
		c0.066-1.416,0.1-2.625,0.1-3.625c0-0.6-0.008-1.324-0.025-2.174c-0.017-0.851-0.083-1.726-0.2-2.625
		c-0.117-0.9-0.283-1.791-0.5-2.676c-0.217-0.883-0.542-1.675-0.975-2.375c-0.433-0.699-0.984-1.268-1.65-1.699
		c-0.667-0.434-1.484-0.65-2.45-0.65c-0.967,0-1.775,0.217-2.425,0.65c-0.65,0.432-1.184,1-1.6,1.699
		c-0.417,0.7-0.742,1.492-0.975,2.375c-0.234,0.885-0.4,1.775-0.5,2.676c-0.1,0.899-0.159,1.774-0.175,2.625
		c-0.017,0.85-0.025,1.574-0.025,2.174C74.747,41.199,74.78,42.408,74.847,43.824"/>
	<path clip-path="url(#SVGID_2_)" fill="#E2231A" d="M97.972,31.625c0.683-2.317,1.608-4.176,2.775-5.575s2.525-2.399,4.075-3
		c1.55-0.601,3.191-0.899,4.925-0.899c1.766,0,3.425,0.299,4.975,0.899c1.55,0.601,2.916,1.601,4.1,3
		c1.183,1.399,2.117,3.258,2.8,5.575c0.683,2.316,1.025,5.175,1.025,8.574c0,3.5-0.342,6.426-1.025,8.775s-1.617,4.225-2.8,5.625
		c-1.184,1.4-2.55,2.4-4.1,3c-1.55,0.6-3.209,0.9-4.975,0.9c-1.734,0-3.375-0.301-4.925-0.9c-1.55-0.6-2.908-1.6-4.075-3
		s-2.092-3.275-2.775-5.625c-0.683-2.35-1.025-5.275-1.025-8.775C96.947,36.8,97.289,33.941,97.972,31.625 M104.147,43.824
		c0.066,1.418,0.275,2.785,0.625,4.101c0.35,1.317,0.908,2.442,1.675,3.375c0.766,0.934,1.867,1.399,3.3,1.399
		c1.466,0,2.591-0.466,3.375-1.399c0.783-0.933,1.35-2.058,1.7-3.375c0.35-1.315,0.558-2.683,0.625-4.101
		c0.066-1.416,0.1-2.625,0.1-3.625c0-0.6-0.008-1.324-0.025-2.174c-0.017-0.851-0.083-1.726-0.2-2.625
		c-0.117-0.9-0.283-1.791-0.5-2.676c-0.217-0.883-0.542-1.675-0.975-2.375c-0.433-0.699-0.984-1.268-1.65-1.699
		c-0.667-0.434-1.484-0.65-2.45-0.65c-0.967,0-1.775,0.217-2.425,0.65c-0.65,0.432-1.184,1-1.6,1.699
		c-0.417,0.7-0.742,1.492-0.975,2.375c-0.234,0.885-0.4,1.775-0.5,2.676c-0.1,0.899-0.159,1.774-0.175,2.625
		c-0.017,0.85-0.025,1.574-0.025,2.174C104.047,41.199,104.08,42.408,104.147,43.824"/>
	<polygon clip-path="url(#SVGID_2_)" fill="#E2231A" points="151.896,22.149 151.896,51.25 169.296,51.25 169.296,57.85 
		144.046,57.85 144.046,22.149 	"/>
	<path clip-path="url(#SVGID_2_)" fill="#E2231A" d="M192.996,22.15l13.35,35.699h-8.149l-2.7-7.95h-13.35l-2.8,7.95h-7.9
		l13.5-35.699H192.996z M193.446,44.05l-4.5-13.101h-0.1l-4.65,13.101H193.446z"/>
	<path clip-path="url(#SVGID_2_)" fill="#E2231A" d="M242.446,22.15c2.233,0,4.133,0.324,5.7,0.975
		c1.566,0.65,2.842,1.509,3.825,2.574c0.982,1.067,1.7,2.285,2.149,3.65c0.45,1.367,0.676,2.784,0.676,4.25
		c0,1.434-0.226,2.842-0.676,4.225c-0.449,1.383-1.167,2.608-2.149,3.676c-0.983,1.066-2.259,1.925-3.825,2.574
		c-1.567,0.65-3.467,0.976-5.7,0.976h-8.25v12.8h-7.85V22.15H242.446z M240.297,38.949c0.899,0,1.766-0.065,2.6-0.199
		c0.833-0.133,1.566-0.391,2.2-0.775c0.633-0.383,1.142-0.925,1.524-1.625c0.383-0.699,0.575-1.615,0.575-2.75
		c0-1.133-0.192-2.05-0.575-2.75c-0.383-0.699-0.892-1.24-1.524-1.625c-0.634-0.383-1.367-0.643-2.2-0.775
		c-0.834-0.133-1.7-0.199-2.6-0.199h-6.101v10.699H240.297z"/>
	<path clip-path="url(#SVGID_2_)" fill="#E2231A" d="M259.821,31.625c0.683-2.317,1.607-4.176,2.774-5.575s2.525-2.399,4.075-3
		s3.191-0.899,4.925-0.899c1.767,0,3.426,0.299,4.976,0.899s2.916,1.601,4.1,3c1.183,1.399,2.116,3.258,2.8,5.575
		c0.684,2.316,1.025,5.175,1.025,8.574c0,3.5-0.342,6.426-1.025,8.775s-1.617,4.225-2.8,5.625c-1.184,1.4-2.55,2.4-4.1,3
		s-3.209,0.9-4.976,0.9c-1.733,0-3.375-0.301-4.925-0.9s-2.908-1.6-4.075-3s-2.092-3.275-2.774-5.625
		c-0.684-2.35-1.025-5.275-1.025-8.775C258.796,36.8,259.138,33.941,259.821,31.625 M265.996,43.824
		c0.066,1.418,0.275,2.785,0.625,4.101c0.35,1.317,0.908,2.442,1.675,3.375c0.767,0.934,1.866,1.399,3.3,1.399
		c1.467,0,2.592-0.466,3.375-1.399c0.783-0.933,1.351-2.058,1.7-3.375c0.351-1.315,0.558-2.683,0.625-4.101
		c0.066-1.416,0.101-2.625,0.101-3.625c0-0.6-0.009-1.324-0.025-2.174c-0.018-0.851-0.084-1.726-0.2-2.625
		c-0.117-0.9-0.283-1.791-0.5-2.676c-0.217-0.883-0.542-1.675-0.975-2.375c-0.434-0.699-0.983-1.268-1.65-1.699
		c-0.667-0.434-1.483-0.65-2.45-0.65s-1.774,0.217-2.425,0.65c-0.649,0.432-1.184,1-1.6,1.699c-0.417,0.7-0.742,1.492-0.976,2.375
		c-0.233,0.885-0.399,1.775-0.5,2.676c-0.1,0.899-0.158,1.774-0.175,2.625c-0.017,0.85-0.024,1.574-0.024,2.174
		C265.896,41.199,265.929,42.408,265.996,43.824"/>
	<path clip-path="url(#SVGID_2_)" fill="#E2231A" d="M296.496,49.05c0.433,0.833,1.008,1.509,1.725,2.024
		c0.717,0.518,1.558,0.9,2.525,1.15c0.966,0.25,1.966,0.375,3,0.375c0.7,0,1.45-0.058,2.25-0.175c0.8-0.116,1.55-0.342,2.25-0.675
		s1.282-0.792,1.75-1.375c0.466-0.583,0.7-1.325,0.7-2.226c0-0.967-0.309-1.749-0.926-2.35s-1.425-1.101-2.425-1.5
		s-2.134-0.75-3.399-1.05c-1.268-0.301-2.551-0.633-3.851-1c-1.333-0.333-2.634-0.742-3.899-1.225c-1.268-0.483-2.4-1.108-3.4-1.875
		c-1-0.768-1.809-1.726-2.425-2.875c-0.617-1.15-0.925-2.541-0.925-4.176c0-1.833,0.391-3.425,1.175-4.775
		c0.782-1.35,1.808-2.475,3.075-3.375c1.266-0.899,2.699-1.566,4.3-2c1.6-0.433,3.2-0.649,4.8-0.649
		c1.866,0,3.658,0.208,5.375,0.625s3.241,1.092,4.575,2.024c1.333,0.934,2.392,2.125,3.175,3.576
		c0.783,1.449,1.175,3.209,1.175,5.274h-7.6c-0.067-1.065-0.292-1.95-0.675-2.649c-0.384-0.701-0.893-1.25-1.525-1.65
		c-0.634-0.4-1.358-0.684-2.175-0.85c-0.817-0.166-1.709-0.25-2.675-0.25c-0.634,0-1.268,0.066-1.9,0.199
		c-0.634,0.135-1.209,0.367-1.725,0.7c-0.518,0.333-0.942,0.75-1.275,1.25c-0.334,0.5-0.5,1.133-0.5,1.899
		c0,0.701,0.133,1.268,0.4,1.701c0.266,0.433,0.791,0.834,1.574,1.199c0.783,0.367,1.867,0.733,3.25,1.1
		c1.383,0.367,3.191,0.834,5.426,1.4c0.666,0.135,1.591,0.375,2.774,0.725c1.183,0.351,2.358,0.91,3.525,1.676
		c1.166,0.767,2.175,1.792,3.024,3.074c0.851,1.285,1.275,2.926,1.275,4.926c0,1.633-0.317,3.149-0.95,4.55
		c-0.634,1.399-1.575,2.608-2.825,3.625s-2.8,1.809-4.649,2.375c-1.851,0.566-3.992,0.85-6.425,0.85
		c-1.968,0-3.875-0.242-5.726-0.725c-1.85-0.483-3.483-1.241-4.899-2.275c-1.418-1.032-2.543-2.35-3.375-3.95
		c-0.834-1.6-1.234-3.5-1.2-5.699h7.6C295.846,47.199,296.062,48.217,296.496,49.05"/>
	<polygon clip-path="url(#SVGID_2_)" fill="#E2231A" points="321.646,28.75 321.646,22.149 350.896,22.149 350.896,28.75 
		340.195,28.75 340.195,57.85 332.345,57.85 332.345,28.75 	"/>
	<polygon clip-path="url(#SVGID_2_)" fill="#E2231A" points="383.195,22.149 383.195,28.75 364.345,28.75 364.345,36.399 
		381.645,36.399 381.645,42.5 364.345,42.5 364.345,51.25 383.595,51.25 383.595,57.85 356.495,57.85 356.495,22.149 	"/>
</g>
</svg>
